# xmcd
#
# Track frame offsets:
#	150
#	12039
#	26891
#	38692
#	52669
#	74217
#	87622
#	105454
#	120866
#	137674
#	150022
#	162583
#	176826
#	193487
#
# Disc length: 2828 seconds
#
# Revision: 0
# Processed by: cddbd v1.4PL0 Copyright (c) Steve Scherf et al.
# Submitted via: dBpowerAMP V4.0
#
DISCID=b60b0a0e
DTITLE=Taj Mahal - Phantom Blues
DYEAR=1996
DGENRE=Blues
TTITLE0=Lovi'in My Baby's Eyes
TTITLE1=Cheatin' On You
TTITLE2=The Hustle Is On
TTITLE3=Here In The Dark
TTITLE4=Fanning The Flames
TTITLE5=I Need Your Loving
TTITLE6=Ooh Poo Pah Doo
TTITLE7=Lonely Avenue
TTITLE8=Don't Tell Me
TTITLE9=What Am I Living For?
TTITLE10=We're Gonna Make It
TTITLE11=Let The Four Winds Blow
TTITLE12=(You've Got To) Love Her With A Feeling
TTITLE13=The Car Of Your Dream
EXTD=
EXTT0=
EXTT1=
EXTT2=
EXTT3=
EXTT4=
EXTT5=
EXTT6=
EXTT7=
EXTT8=
EXTT9=
EXTT10=
EXTT11=
EXTT12=
EXTT13=
PLAYORDER=
